<svg width="16" height="15" viewBox="0 0 16 15" fill="none" xmlns="http://www.w3.org/2000/svg">
<path d="M7.10938 14.0469V8.59375C7.10938 7.93229 7.30469 7.41667 7.69531 7.04688C8.09115 6.67188 8.63281 6.48438 9.32031 6.48438H14.5938V7.74219H9.34375C9.03125 7.74219 8.78906 7.82292 8.61719 7.98438C8.45052 8.14062 8.36719 8.36198 8.36719 8.64844V14.0469H7.10938ZM3.25781 14.5625C2.4401 14.5625 1.82552 14.3594 1.41406 13.9531C1.00781 13.5521 0.804688 12.9479 0.804688 12.1406V2.60156C0.804688 1.79427 1.00781 1.1901 1.41406 0.789062C1.82552 0.382812 2.4401 0.179688 3.25781 0.179688H12.7344C13.5521 0.179688 14.1641 0.382812 14.5703 0.789062C14.9818 1.1901 15.1875 1.79427 15.1875 2.60156V12.1406C15.1875 12.9479 14.9818 13.5521 14.5703 13.9531C14.1641 14.3594 13.5521 14.5625 12.7344 14.5625H3.25781ZM3.27344 13.3047H12.7188C13.1042 13.3047 13.401 13.2031 13.6094 13C13.8229 12.7917 13.9297 12.4844 13.9297 12.0781V2.66406C13.9297 2.25781 13.8229 1.95312 13.6094 1.75C13.401 1.54167 13.1042 1.4375 12.7188 1.4375H3.27344C2.88281 1.4375 2.58333 1.54167 2.375 1.75C2.16667 1.95312 2.0625 2.25781 2.0625 2.66406V12.0781C2.0625 12.4844 2.16667 12.7917 2.375 13C2.58333 13.2031 2.88281 13.3047 3.27344 13.3047Z" fill="white"/>
</svg>
