<svg width="18" height="18" viewBox="0 0 18 18" fill="none" xmlns="http://www.w3.org/2000/svg">
<path d="M8.99219 16.8281C8.89323 16.8281 8.79688 16.8255 8.70312 16.8203C8.60938 16.8203 8.51562 16.8151 8.42188 16.8047L7.99219 17.625C7.94531 17.7188 7.8776 17.7865 7.78906 17.8281C7.70052 17.875 7.60156 17.888 7.49219 17.8672C7.38802 17.8464 7.30208 17.7995 7.23438 17.7266C7.17188 17.6536 7.13021 17.5625 7.10938 17.4531L6.96875 16.5547C6.78646 16.5026 6.60677 16.4427 6.42969 16.375C6.25781 16.3125 6.08333 16.2448 5.90625 16.1719L5.24219 16.7656C5.15885 16.8385 5.06771 16.8828 4.96875 16.8984C4.86979 16.9141 4.76562 16.8932 4.65625 16.8359C4.56771 16.7839 4.50521 16.7109 4.46875 16.6172C4.4375 16.5234 4.43229 16.4219 4.45312 16.3125L4.625 15.4297C4.47917 15.3203 4.33333 15.2057 4.1875 15.0859C4.04167 14.9661 3.90104 14.8411 3.76562 14.7109L2.94531 15.0547C2.83594 15.1016 2.73177 15.112 2.63281 15.0859C2.53385 15.0599 2.44531 15 2.36719 14.9062C2.30469 14.8281 2.26823 14.7396 2.25781 14.6406C2.2526 14.5365 2.27865 14.4375 2.33594 14.3438L2.8125 13.5703C2.70833 13.4193 2.60938 13.263 2.51562 13.1016C2.42708 12.9349 2.33854 12.7656 2.25 12.5938L1.34375 12.625C1.23958 12.6354 1.14323 12.6146 1.05469 12.5625C0.966146 12.5052 0.90625 12.4219 0.875 12.3125C0.838542 12.2083 0.835938 12.1094 0.867188 12.0156C0.898438 11.9219 0.955729 11.8411 1.03906 11.7734L1.74219 11.2109C1.69531 11.0286 1.65625 10.8464 1.625 10.6641C1.59375 10.4766 1.57292 10.2839 1.5625 10.0859L0.695312 9.8125C0.585938 9.78125 0.502604 9.72656 0.445312 9.64844C0.388021 9.5651 0.359375 9.46875 0.359375 9.35938C0.359375 9.24479 0.388021 9.14844 0.445312 9.07031C0.502604 8.99219 0.585938 8.9375 0.695312 8.90625L1.5625 8.63281C1.57292 8.4349 1.59375 8.24479 1.625 8.0625C1.65625 7.875 1.69531 7.6901 1.74219 7.50781L1.03906 6.9375C0.955729 6.875 0.898438 6.79688 0.867188 6.70312C0.835938 6.60938 0.838542 6.51302 0.875 6.41406C0.90625 6.30469 0.966146 6.22396 1.05469 6.17188C1.14323 6.11458 1.23958 6.09115 1.34375 6.10156L2.25 6.125C2.33854 5.95312 2.42708 5.78646 2.51562 5.625C2.60938 5.46354 2.70833 5.30208 2.8125 5.14062L2.32812 4.36719C2.27604 4.27865 2.2526 4.1849 2.25781 4.08594C2.26823 3.98698 2.30469 3.89844 2.36719 3.82031C2.44531 3.72656 2.53125 3.66927 2.625 3.64844C2.72396 3.6224 2.82812 3.63021 2.9375 3.67188L3.76562 4C3.90104 3.88021 4.04167 3.76042 4.1875 3.64062C4.33333 3.51562 4.47917 3.39844 4.625 3.28906L4.45312 2.41406C4.42708 2.29948 4.43229 2.19531 4.46875 2.10156C4.50521 2.00781 4.56771 1.9375 4.65625 1.89062C4.76042 1.83333 4.86198 1.8125 4.96094 1.82812C5.0651 1.83854 5.15885 1.88281 5.24219 1.96094L5.90625 2.53906C6.08333 2.47135 6.25781 2.40625 6.42969 2.34375C6.60677 2.27604 6.78646 2.21615 6.96875 2.16406L7.10938 1.27344C7.13021 1.16406 7.17188 1.07292 7.23438 1C7.30208 0.927083 7.38802 0.880208 7.49219 0.859375C7.60156 0.838542 7.70052 0.851562 7.78906 0.898438C7.8776 0.940104 7.94531 1.00521 7.99219 1.09375L8.42188 1.91406C8.52083 1.90365 8.61458 1.89844 8.70312 1.89844C8.79688 1.89323 8.89323 1.89062 8.99219 1.89062C9.08594 1.89062 9.17969 1.89323 9.27344 1.89844C9.36719 1.89844 9.46094 1.90365 9.55469 1.91406L9.99219 1.09375C10.0339 1.00521 10.099 0.940104 10.1875 0.898438C10.2812 0.851562 10.3828 0.838542 10.4922 0.859375C10.5964 0.880208 10.6823 0.927083 10.75 1C10.8229 1.07292 10.8646 1.16406 10.875 1.27344L11.0156 2.17188C11.1927 2.21875 11.3698 2.27604 11.5469 2.34375C11.724 2.40625 11.8984 2.47135 12.0703 2.53906L12.7422 1.95312C12.8203 1.88021 12.9089 1.83854 13.0078 1.82812C13.112 1.8125 13.2161 1.83333 13.3203 1.89062C13.4089 1.9375 13.4714 2.00781 13.5078 2.10156C13.5495 2.19531 13.5573 2.29948 13.5312 2.41406L13.3516 3.28906C13.4974 3.39844 13.6432 3.51562 13.7891 3.64062C13.9401 3.76042 14.0807 3.88021 14.2109 4L15.0469 3.67188C15.151 3.63021 15.2526 3.6224 15.3516 3.64844C15.4505 3.66927 15.5391 3.72656 15.6172 3.82031C15.6797 3.89844 15.7135 3.98698 15.7188 4.08594C15.7292 4.1849 15.7057 4.27865 15.6484 4.36719L15.1719 5.14062C15.375 5.45312 15.5625 5.78125 15.7344 6.125L16.6406 6.10156C16.7448 6.09115 16.8411 6.11458 16.9297 6.17188C17.0182 6.22396 17.0781 6.30469 17.1094 6.41406C17.1458 6.51302 17.1458 6.60938 17.1094 6.70312C17.0781 6.79688 17.0234 6.875 16.9453 6.9375L16.2422 7.50781C16.2891 7.6901 16.3281 7.875 16.3594 8.0625C16.3906 8.24479 16.4141 8.4349 16.4297 8.63281L17.2812 8.90625C17.5208 8.98438 17.6406 9.13542 17.6406 9.35938C17.6406 9.58333 17.5208 9.73438 17.2812 9.8125L16.4297 10.0859C16.4141 10.2839 16.3906 10.4766 16.3594 10.6641C16.3281 10.8464 16.2891 11.0286 16.2422 11.2109L16.9453 11.7734C17.0234 11.8411 17.0781 11.9245 17.1094 12.0234C17.1458 12.1172 17.1458 12.2135 17.1094 12.3125C17.0781 12.4219 17.0182 12.5052 16.9297 12.5625C16.8411 12.6146 16.7448 12.6354 16.6406 12.625L15.7344 12.5938C15.6458 12.7656 15.5547 12.9349 15.4609 13.1016C15.3724 13.263 15.276 13.4193 15.1719 13.5703L15.6484 14.3438C15.7057 14.4375 15.7292 14.5365 15.7188 14.6406C15.7135 14.7396 15.6797 14.8281 15.6172 14.9062C15.5391 15 15.4505 15.0599 15.3516 15.0859C15.2526 15.112 15.1484 15.1016 15.0391 15.0547L14.2109 14.7109C14.0807 14.8411 13.9401 14.9661 13.7891 15.0859C13.6432 15.2057 13.4974 15.3203 13.3516 15.4297L13.5312 16.3125C13.5938 16.5417 13.5234 16.7161 13.3203 16.8359C13.2161 16.8932 13.112 16.9141 13.0078 16.8984C12.9089 16.8828 12.8203 16.8385 12.7422 16.7656L12.0703 16.1719C11.8984 16.2448 11.724 16.3125 11.5469 16.375C11.3698 16.4427 11.1927 16.5 11.0156 16.5469L10.875 17.4531C10.8646 17.5625 10.8229 17.6536 10.75 17.7266C10.6823 17.7995 10.5964 17.8464 10.4922 17.8672C10.3828 17.888 10.2839 17.875 10.1953 17.8281C10.1068 17.7865 10.0391 17.7188 9.99219 17.625L9.55469 16.8047C9.46094 16.8151 9.36719 16.8203 9.27344 16.8203C9.17969 16.8255 9.08594 16.8281 8.99219 16.8281ZM8.99219 15.5703C9.86198 15.5703 10.6693 15.4115 11.4141 15.0938C12.1589 14.776 12.8099 14.3333 13.3672 13.7656C13.9245 13.1979 14.3568 12.5391 14.6641 11.7891C14.9766 11.0391 15.1328 10.2318 15.1328 9.36719C15.1328 8.5026 14.9766 7.69531 14.6641 6.94531C14.3568 6.1901 13.9245 5.52865 13.3672 4.96094C12.8099 4.39323 12.1589 3.95052 11.4141 3.63281C10.6693 3.3099 9.86198 3.14844 8.99219 3.14844C8.1276 3.14844 7.32292 3.3099 6.57812 3.63281C5.83333 3.95052 5.18229 4.39323 4.625 4.96094C4.07292 5.52865 3.64062 6.1901 3.32812 6.94531C3.02083 7.69531 2.86719 8.5026 2.86719 9.36719C2.86719 10.2318 3.02083 11.0391 3.32812 11.7891C3.64062 12.5391 4.07292 13.1979 4.625 13.7656C5.18229 14.3333 5.83333 14.776 6.57812 15.0938C7.32292 15.4115 8.1276 15.5703 8.99219 15.5703ZM7.63281 8.16406L4.98438 3.64062L5.94531 3.10156L8.55469 7.57812L7.63281 8.16406ZM10.7344 9.89062V8.8125H15.9297V9.89062H10.7344ZM8.57031 11.1641L5.85938 15.6172L4.90625 15.0547L7.65625 10.5703L8.57031 11.1641ZM8.97656 11.4141C8.59635 11.4141 8.2526 11.3229 7.94531 11.1406C7.63802 10.9583 7.39323 10.7135 7.21094 10.4062C7.02865 10.0938 6.9375 9.75 6.9375 9.375C6.9375 8.99479 7.02865 8.65104 7.21094 8.34375C7.39323 8.03646 7.63802 7.79167 7.94531 7.60938C8.2526 7.42188 8.59635 7.32812 8.97656 7.32812C9.35156 7.32812 9.69271 7.42188 10 7.60938C10.3125 7.79167 10.5599 8.03646 10.7422 8.34375C10.9297 8.65104 11.0234 8.99479 11.0234 9.375C11.0234 9.75 10.9297 10.0938 10.7422 10.4062C10.5599 10.7135 10.3125 10.9583 10 11.1406C9.69271 11.3229 9.35156 11.4141 8.97656 11.4141ZM8.97656 10.2422C9.22656 10.2422 9.4349 10.1615 9.60156 10C9.77344 9.83333 9.85938 9.625 9.85938 9.375C9.85938 9.125 9.77344 8.91667 9.60156 8.75C9.4349 8.57812 9.22656 8.49219 8.97656 8.49219C8.73177 8.49219 8.52344 8.57812 8.35156 8.75C8.1849 8.91667 8.10156 9.125 8.10156 9.375C8.10156 9.625 8.1849 9.83333 8.35156 10C8.52344 10.1615 8.73177 10.2422 8.97656 10.2422Z" fill="white"/>
</svg>
